<?xml version="1.0" encoding="utf-8"?>
<!-- Generator: Adobe Illustrator 16.0.0, SVG Export Plug-In . SVG Version: 6.00 Build 0)  -->
<!DOCTYPE svg PUBLIC "-//W3C//DTD SVG 1.1//EN" "http://www.w3.org/Graphics/SVG/1.1/DTD/svg11.dtd">
<svg version="1.1" id="Layer_1" xmlns="http://www.w3.org/2000/svg" xmlns:xlink="http://www.w3.org/1999/xlink" x="0px" y="0px"
	 width="1381px" height="898px" viewBox="0 0 1381 898" enable-background="new 0 0 1381 898" xml:space="preserve">
<g id="Color_Fill_1_1_" opacity="0.6" enable-background="new    ">
	<g id="Color_Fill_1" opacity="0.5">
		<g>
			
				<linearGradient id="SVGID_1_" gradientUnits="userSpaceOnUse" x1="512.4976" y1="251.8066" x2="925.6709" y2="251.8066" gradientTransform="matrix(1 0 0 -1 -108 701)">
				<stop  offset="0" style="stop-color:#020202"/>
				<stop  offset="0.5" style="stop-color:#F7F7F7"/>
				<stop  offset="1" style="stop-color:#000000"/>
			</linearGradient>
			<path fill="url(#SVGID_1_)" d="M427.693,640.442c0.231-0.339,0.457-0.682,0.691-1.019
				C427.983,640,427.76,640.328,427.693,640.442z M767.663,77.371c-56.718-43.165-118.042-33.71-158.983,26.089
				c-0.446,0.653,45.848,61.448,48.34,57.808c6.578-36.443,28.1-77.158,68.878-53.593c26.622,15.385,51.478,66.002,12.448,107.149
				l0.096,0.072c0,0-313.682,430.533-310.749,425.545c-39.917,58.24-27.131,142.5,29.261,185.415
				c56.718,43.163,125.886,18.774,166.826-41.023c0.66-0.964-35.568-63.585-36.17-62.706c0,92.975-57.463,109.205-93.787,83.001
				c-36.324-26.203-27.937-97.011-8.181-122.129c-10.093,12.832,97.544-152.083,309.313-423.228
				C831.95,212.408,824.382,120.535,767.663,77.371z"/>
		</g>
	</g>
</g>
<g id="Logo_1_" enable-background="new    ">
	<g id="Logo_2_">
		<g>
			<path fill="#FFFFFF" d="M806.675,265.437h-56.754c-6.019,0-11.49,5.472-11.49,11.49v344.74c0,6.019,5.473,11.49,11.49,11.49
				h56.754c6.02,0,10.396-5.473,10.396-11.49v-344.74C817.071,270.908,812.693,265.437,806.675,265.437z M405.139,621.667
				c0,6.019,4.926,11.49,10.943,11.49h57.301c6.02,0,10.396-5.473,10.396-11.49V379.065c0-75.508-32.131-113.811-110.923-113.811
				h-27.358c-78.792,0-110.924,38.302-110.924,113.811v242.602c0,6.019,4.377,11.49,10.396,11.49h57.301
				c6.019,0,10.943-5.473,10.943-11.49V379.065c0-24.075,3.83-41.037,32.283-41.037h27.358c28.453,0,32.283,16.962,32.283,41.037
				L405.139,621.667L405.139,621.667z M142.675,265.437H85.921c-6.019,0-11.49,5.472-11.49,11.49v344.74
				c0,6.019,5.472,11.49,11.49,11.49h56.754c6.019,0,10.396-5.473,10.396-11.49v-344.74
				C153.071,270.908,148.694,265.437,142.675,265.437z M1287.675,265.437h-56.754c-6.019,0-11.49,5.472-11.49,11.49v344.74
				c0,6.019,5.473,11.49,11.49,11.49h56.754c6.02,0,10.396-5.473,10.396-11.49v-344.74
				C1298.071,270.908,1293.693,265.437,1287.675,265.437z M1036.355,265.255h-27.357c-78.792,0-110.924,38.302-110.924,113.811
				v242.602c0,6.019,4.377,11.49,10.396,11.49h57.302c6.02,0,10.942-5.473,10.942-11.49V379.065c0-24.075,3.83-41.037,32.283-41.037
				h27.358c28.451,0,32.281,16.962,32.281,41.037v242.602c0,6.019,4.926,11.49,10.943,11.49h57.301
				c6.021,0,10.396-5.473,10.396-11.49V379.065C1147.279,303.557,1115.146,265.255,1036.355,265.255z M701,51.094
				c-73.178,0-132,64.138-132,143.255c0,170.394,0,511.767,0,511.767h-0.121C568.081,740.246,549,795.764,490,795.764
				s-85.417-49.721-85.417-91.27c0-4.816-0.083-0.863-0.083,0c0,79.118,43.322,143.256,116.5,143.256s132-64.138,132-143.256
				c0-170.395,0-511.767,0-511.767h0.121C653.919,158.598,673,103.08,732,103.08s85.417,49.721,85.417,91.269
				c0,4.817,0.083,0.864,0.083,0C817.5,115.231,774.178,51.094,701,51.094z"/>
		</g>
	</g>
</g>
<g id="_xAE__1_" enable-background="new    ">
	<g id="_xAE_">
		<g>
			<path fill="#ACACAC" d="M1344.336,279.688v-0.164c1.641-0.492,2.788-1.64,2.788-3.116c0-1.312-0.574-2.378-1.312-2.952
				c-0.984-0.574-2.134-0.984-4.675-0.984c-2.215,0-3.937,0.164-5.167,0.41v13.448h3.116v-5.412h1.478
				c1.722,0,2.542,0.656,2.787,2.132c0.409,1.558,0.655,2.788,1.065,3.28h3.362c-0.328-0.492-0.574-1.312-0.984-3.362
				C1346.387,281.164,1345.648,280.18,1344.336,279.688z M1340.646,278.704h-1.478v-3.854c0.328-0.082,0.902-0.164,1.723-0.164
				c1.969,0,2.869,0.82,2.869,2.05C1343.762,278.129,1342.368,278.704,1340.646,278.704z M1341.22,265.83
				c-7.708,0-13.856,5.986-13.856,13.448c0,7.626,6.148,13.612,13.856,13.612c7.79,0,13.776-5.986,13.776-13.612
				C1354.996,271.815,1349.01,265.83,1341.22,265.83z M1341.302,290.02c-6.066,0-10.496-4.756-10.496-10.742
				c0-5.904,4.43-10.742,10.414-10.742c5.986,0,10.333,4.838,10.333,10.824C1351.553,285.264,1347.206,290.02,1341.302,290.02z"/>
		</g>
	</g>
</g>
</svg>
