<?xml version="1.0" encoding="UTF-8" standalone="no"?>
<svg width="350px" height="228px" viewBox="0 0 350 228" version="1.1" xmlns="http://www.w3.org/2000/svg" xmlns:xlink="http://www.w3.org/1999/xlink" xmlns:sketch="http://www.bohemiancoding.com/sketch/ns">
    <title>infini-logo-white</title>
    <description>Created with Sketch (http://www.bohemiancoding.com/sketch)</description>
    <defs></defs>
    <g id="Page-1" stroke="none" stroke-width="1" fill="none" fill-rule="evenodd" sketch:type="MSPage">
        <path d="M179.214132,0 C158.29473,0 141.478763,18.3560353 141.478763,40.9992858 L141.478763,187.464924 L141.444172,187.464924 C141.216045,197.232792 135.761282,213.121532 118.894716,213.121532 C102.028435,213.121532 94.4765012,198.891869 94.4765012,187.000714 C94.4765012,185.622395 94.4527736,186.753441 94.4527736,187.000714 C94.4527736,209.643965 106.837408,228 127.757096,228 C148.676499,228 165.492466,209.643965 165.492466,187.000714 L165.492466,40.5350759 L165.527056,40.5350759 C165.755184,30.7674947 171.209946,14.8784684 188.076513,14.8784684 C204.943079,14.8784684 212.494727,29.1081306 212.494727,40.9992858 C212.494727,42.3776054 212.518741,41.2465591 212.518741,40.9992858 C212.518741,18.3560353 200.133821,0 179.214132,0 Z M275.20628,61.4654378 L267.371858,61.4654378 C244.808734,61.4654378 235.607196,72.4040754 235.607196,93.9686305 L235.607196,163.253142 C235.607196,164.972104 236.860624,166.534562 238.584265,166.534562 L254.993368,166.534562 C256.717009,166.534562 258.127366,164.972104 258.127366,163.253142 L258.127366,93.9686305 C258.127366,87.0930705 259.22415,82.2486208 267.371858,82.2486208 L275.20628,82.2486208 C283.354274,82.2486208 284.451059,87.0930705 284.451059,93.9686305 L284.451059,163.253142 C284.451059,164.972104 285.861415,166.534562 287.584484,166.534562 L303.9933,166.534562 C305.717228,166.534562 306.971514,164.972104 306.971514,163.253142 L306.971514,93.9686305 C306.971514,72.4040754 297.77055,61.4654378 275.20628,61.4654378 Z M347.015988,61.4654378 L330.733041,61.4654378 C329.005757,61.4654378 327.436282,63.0289554 327.436282,64.7484818 L327.436282,163.251518 C327.436282,164.97133 329.005757,166.534562 330.733041,166.534562 L347.015988,166.534562 C348.743272,166.534562 350,164.97133 350,163.251518 L350,64.7484818 C350,63.0289554 348.743272,61.4654378 347.015988,61.4654378 Z M19.5806053,61.4654378 L3.296717,61.4654378 C1.57002919,61.4654378 0,63.0289554 0,64.7484818 L0,163.251518 C0,164.97133 1.57002919,166.534562 3.296717,166.534562 L19.5806053,166.534562 C21.30758,166.534562 22.5637181,164.97133 22.5637181,163.251518 L22.5637181,64.7484818 C22.5637181,63.0289554 21.30758,61.4654378 19.5806053,61.4654378 Z M94.4962321,163.253142 C94.4962321,164.972104 95.9065941,166.534562 97.6302426,166.534562 L114.039411,166.534562 C115.763059,166.534562 117.016492,164.972104 117.016492,163.253142 L117.016492,93.9686305 C117.016492,72.4040754 107.814918,61.4654378 85.2517028,61.4654378 L77.4169629,61.4654378 C54.853748,61.4654378 45.6521739,72.4040754 45.6521739,93.9686305 L45.6521739,163.253142 C45.6521739,164.972104 46.9056063,166.534562 48.6292548,166.534562 L65.0384231,166.534562 C66.7620716,166.534562 68.1724336,164.972104 68.1724336,163.253142 L68.1724336,93.9686305 C68.1724336,87.0930705 69.2692228,82.2486208 77.4169629,82.2486208 L85.2517028,82.2486208 C93.3994429,82.2486208 94.4962321,87.0930705 94.4962321,93.9686305 L94.4962321,163.253142 Z M209.535915,61.4654378 L193.251739,61.4654378 C191.525052,61.4654378 189.955022,63.0289554 189.955022,64.7484818 L189.955022,163.251518 C189.955022,164.97133 191.525052,166.534562 193.251739,166.534562 L209.535915,166.534562 C211.262603,166.534562 212.518741,164.97133 212.518741,163.251518 L212.518741,64.7484818 C212.518741,63.0289554 211.262603,61.4654378 209.535915,61.4654378 Z M209.535915,61.4654378" id="Path" opacity="0.825" fill="#FFFFFF" sketch:type="MSShapeGroup"></path>
    </g>
</svg>