<?xml version="1.0" encoding="UTF-8" standalone="no"?>
<svg width="1281px" height="797px" viewBox="0 0 1281 797" version="1.1" xmlns="http://www.w3.org/2000/svg" xmlns:xlink="http://www.w3.org/1999/xlink" xmlns:sketch="http://www.bohemiancoding.com/sketch/ns">
    <title>Slice 1</title>
    <description>Created with Sketch (http://www.bohemiancoding.com/sketch)</description>
    <defs>
        <path id="path-1" d="M0.06,0.905 L1280.57,0.905 L1280.57,797.94 L0.06,797.94 L0.06,797.94 L0.06,0.905 L0.06,0.905 Z M0.06,0.905"></path>
        <mask id="mask-2" sketch:name="Clip 2" fill="white">
            <use xlink:href="#path-1"></use>
        </mask>
        <path id="path-3" d="M0.06,0.905 L1280.57,0.905 L1280.57,797.94 L0.06,797.94 L0.06,797.94 L0.06,0.905 L0.06,0.905 Z M0.06,0.905"></path>
        <mask id="mask-4" sketch:name="Clip 5" fill="white">
            <use xlink:href="#path-3"></use>
        </mask>
    </defs>
    <g id="Page-1" stroke="none" stroke-width="1" fill="none" fill-rule="evenodd" sketch:type="MSPage">
        <g id="Infini-LogoFlattened" sketch:type="MSLayerGroup" transform="translate(0.000000, -1.000000)">
            <g id="Group-3" sketch:type="MSShapeGroup">
                <use id="Clip-2" xlink:href="#path-1"></use>
                <path d="M0.06,0.905 L1280.57,0.905 L1280.57,797.94 L0.06,797.94 L0.06,797.94 L0.06,0.905 L0.06,0.905 Z M0.06,0.905" id="Fill-1" mask="url(#mask-2)"></path>
            </g>
            <g id="Group-6" sketch:type="MSShapeGroup">
                <use id="Clip-5" xlink:href="#path-3"></use>
                <path d="M626.569,1.343 C553.392,1.343 494.569,65.481 494.569,144.599 L494.569,656.366 L494.448,656.366 C493.65,690.496 474.569,746.013 415.569,746.013 C356.57,746.013 330.153,696.293 330.153,654.744 C330.153,649.928 330.07,653.88 330.07,654.744 C330.07,733.862 373.392,798 446.57,798 C519.747,798 578.57,733.862 578.57,654.744 L578.57,142.977 L578.691,142.977 C579.489,108.848 598.57,53.33 657.57,53.33 C716.57,53.33 742.986,103.05 742.986,144.599 C742.986,149.415 743.07,145.463 743.07,144.599 C743.07,65.481 699.747,1.343 626.569,1.343 L626.569,1.343 L626.569,1.343 L626.569,1.343 Z M961.925,215.504 L934.567,215.504 C855.776,215.504 823.644,253.806 823.644,329.315 L823.644,571.917 C823.644,577.936 828.021,583.407 834.04,583.407 L891.341,583.407 C897.36,583.407 902.285,577.936 902.285,571.917 L902.285,329.315 C902.285,305.24 906.115,288.277 934.567,288.277 L961.925,288.277 C990.378,288.277 994.208,305.24 994.208,329.315 L994.208,571.917 C994.208,577.936 999.133,583.407 1005.15,583.407 L1062.45,583.407 C1068.47,583.407 1072.85,577.936 1072.85,571.917 L1072.85,329.315 C1072.85,253.806 1040.72,215.504 961.925,215.504 L961.925,215.504 L961.925,215.504 L961.925,215.504 Z M1213.24,215.686 L1156.49,215.686 C1150.47,215.686 1145,221.158 1145,227.176 L1145,571.917 C1145,577.936 1150.47,583.407 1156.49,583.407 L1213.24,583.407 C1219.26,583.407 1223.64,577.936 1223.64,571.917 L1223.64,227.176 C1223.64,221.158 1219.26,215.686 1213.24,215.686 L1213.24,215.686 L1213.24,215.686 L1213.24,215.686 Z M68.244,215.686 L11.49,215.686 C5.472,215.686 0,221.158 0,227.176 L0,571.917 C0,577.936 5.472,583.407 11.49,583.407 L68.244,583.407 C74.263,583.407 78.641,577.936 78.641,571.917 L78.641,227.176 C78.641,221.158 74.263,215.686 68.244,215.686 L68.244,215.686 L68.244,215.686 L68.244,215.686 Z M330.708,571.917 C330.708,577.936 335.633,583.407 341.652,583.407 L398.953,583.407 C404.972,583.407 409.349,577.936 409.349,571.917 L409.349,329.315 C409.349,253.806 377.217,215.504 298.426,215.504 L271.067,215.504 C192.276,215.504 160.144,253.806 160.144,329.315 L160.144,571.917 C160.144,577.936 164.521,583.407 170.54,583.407 L227.841,583.407 C233.86,583.407 238.785,577.936 238.785,571.917 L238.785,329.315 C238.785,305.24 242.615,288.277 271.067,288.277 L298.426,288.277 C326.878,288.277 330.708,305.24 330.708,329.315 L330.708,571.917 L330.708,571.917 L330.708,571.917 L330.708,571.917 Z M732.245,215.686 L675.49,215.686 C669.472,215.686 664,221.158 664,227.176 L664,571.917 C664,577.936 669.472,583.407 675.49,583.407 L732.245,583.407 C738.263,583.407 742.641,577.936 742.641,571.917 L742.641,227.176 C742.641,221.158 738.263,215.686 732.245,215.686 L732.245,215.686 Z M732.245,215.686" id="Fill-4" fill="#000000" mask="url(#mask-4)"></path>
            </g>
            <path d="M1266.87,240.269 C1260.8,240.269 1256.38,235.513 1256.38,229.527 C1256.38,223.623 1260.8,218.785 1266.79,218.785 C1272.78,218.785 1277.12,223.623 1277.12,229.609 C1277.12,235.513 1272.78,240.269 1266.87,240.269 L1266.87,240.269 L1266.87,240.269 L1266.87,240.269 Z M1266.79,216.079 C1259.08,216.079 1252.93,222.065 1252.93,229.527 C1252.93,237.153 1259.08,243.139 1266.79,243.139 C1274.58,243.139 1280.57,237.153 1280.57,229.527 C1280.57,222.065 1274.58,216.079 1266.79,216.079 L1266.79,216.079 L1266.79,216.079 L1266.79,216.079 Z M1266.22,228.953 L1264.74,228.953 L1264.74,225.099 C1265.07,225.017 1265.64,224.935 1266.46,224.935 C1268.43,224.935 1269.33,225.755 1269.33,226.985 C1269.33,228.379 1267.94,228.953 1266.22,228.953 L1266.22,228.953 L1266.22,228.953 L1266.22,228.953 Z M1269.91,229.937 L1269.91,229.773 C1271.55,229.281 1272.69,228.133 1272.69,226.657 C1272.69,225.345 1272.12,224.279 1271.38,223.705 C1270.4,223.131 1269.25,222.721 1266.71,222.721 C1264.49,222.721 1262.77,222.885 1261.54,223.131 L1261.54,236.579 L1264.66,236.579 L1264.66,231.167 L1266.13,231.167 C1267.86,231.167 1268.68,231.823 1268.92,233.299 C1269.33,234.857 1269.58,236.087 1269.99,236.579 L1273.35,236.579 C1273.02,236.087 1272.78,235.267 1272.37,233.217 C1271.96,231.413 1271.22,230.429 1269.91,229.937 L1269.91,229.937 Z M1269.91,229.937" id="Fill-7" fill="#ACACAC" sketch:type="MSShapeGroup"></path>
        </g>
    </g>
</svg>